<svg xmlns="http://www.w3.org/2000/svg" viewBox="0 0 3.5442 4.8012"><path d="M.7503 4.6039c0-.1396.0075-.1997.0259-.2055a8 8 0 0 1 .1457-.0416c.1917-.0532.3288-.1979.3575-.377l.0128-.0806-.2109-.0263c-.3904-.0487-.658-.166-.8676-.38-.1055-.1078-.1977-.268-.2116-.368-.0069-.0496-.0027-.0517.1015-.051l.5743.0052.4656.0044v.3519H.9986v-.2277H.5951c-.3339 0-.4036.005-.4036.0292 0 .043.2238.2629.3322.3264.0515.0302.1522.0746.2237.0987.138.0465.52.1116.5397.092.0064-.0064.0093-.16.0066-.341l-.005-.3295h.177c.207 0 .211-.0186.0216-.1028-.2455-.1092-.3711-.1334-.6956-.1338-.1686-.0001-.3612.0118-.4395.0273-.0767.0152-.1537.0223-.171.0156-.0276-.0106-.0308-.114-.0261-.8352l.0054-.8232.119-.0062.119-.0062V.9876l.1707.0111c.094.0062.2142.0223.2673.036.0955.0246.0963.0254.075.0865-.0187.0537-.0285.0598-.0758.047-.096-.026-.2186-.0488-.2665-.0497l-.0465-.0009v1.3452H.686c.3464 0 .7471.1406.969.34.0578.052.1117.0946.12.0946.0321 0-.0175-.2438-.0692-.3393-.0408-.0754-.105-.1393-.2516-.2504-.2388-.1809-.3273-.2761-.4057-.4365-.0545-.1117-.0596-.1414-.059-.3397.0007-.2059.0047-.2257.0758-.3772.097-.2067.2304-.3785.3963-.5105.073-.0581.1381-.1056.1448-.1056.0066 0 .003.0239-.0081.053-.0272.0714-.0258.2722.002.2894.0122.0075.0457-.0082.0745-.035.1659-.1548.2053-.4824.0902-.7508L1.7244 0l.0867.0443c.2914.1486.5562.4366.6504.7073.0577.1661.051.4456-.0147.6025-.0566.1353-.0738.1489-.1325.1045-.0332-.025-.036-.0379-.0163-.0769.1129-.2246.111-.4467-.006-.6898-.0674-.1401-.2662-.3814-.3143-.3814-.0098 0-.0189.0687-.0202.1527-.0048.3188-.2336.6146-.4124.5331a.156.156 0 0 1-.0704-.075C1.4486.8524 1.437.8556 1.4012.941c-.0976.2334.019.472.3632.7439.145.1145.2944.2712.3363.3528.0236.046.0484.1393.055.2075l.0122.124.065-.0982c.142-.2148.1153-.3406-.1255-.5917-.0944-.0984-.1823-.1993-.1953-.2241-.0422-.081-.0292-.2254.0262-.2898.049-.0568.0505-.0572.0925-.0192.0386.0349.0397.0428.0123.082-.0167.0239-.0304.0744-.0304.1124 0 .0586.0254.0947.1674.2386.092.0932.185.2036.2064.2452.0972.1888.0625.3973-.0954.573-.0862.0957-.3094.248-.3314.226-.005-.005.0095-.0633.0323-.1295.0917-.2666.0285-.4373-.2433-.6574-.3634-.2942-.4638-.4247-.5-.6497l-.016-.1003-.0441.095c-.0982.2117-.1087.4434-.0284.6251.0531.12.1638.2406.3557.3877.2843.2179.3633.3381.3867.588l.0125.1346.1212-.1121c.1329-.123.3527-.2406.5455-.2916.0683-.018.2243-.0382.3466-.0446l.2225-.0118V1.1137l-.1086.0143c-.0598.0078-.1739.0358-.2535.0622s-.146.0464-.1472.0446a.7.7 0 0 1-.0155-.0588c-.0125-.052-.0058-.0582.1057-.1008.1145-.0437.4958-.1077.5278-.0886.0085.005.0155.06.0155.1219v.1126h.1018c.1823 0 .1672-.0744.1669.8248-.0002.4398-.0086.8128-.0188.8288-.0158.025-.0412.025-.1807 0-.2343-.042-.7063-.037-.8763.0094-.157.0428-.4139.156-.4139.1825 0 .0102.3163.0172.7191.0158l.7192-.0024.0071.0474c.0176.1161-.0845.298-.201.3583-.03.0155-.1104.0347-.1786.0426-.3132.0363-.5017.1167-.5973.2547-.1113.1606-.0921.318.0551.453.0482.0443.1283.0917.18.1066.0512.0148.1164.0335.1449.0414.05.0141.052.021.0576.2159l.006.2013h-.6775l-.05-.076c-.0276-.0417-.0851-.104-.128-.1383-.0994-.0797-.278-.0992-.4181-.0457-.0942.036-.2386.1746-.2386.229 0 .0263-.0532.031-.3518.031H.7504zm.6519-.0141c.0341-.0466.1133-.1134.1759-.1487.1011-.0568.1322-.064.2793-.0636.1439.0003.18.0083.276.061.0607.0334.133.089.1606.1237.0277.0347.06.0747.0716.0889.0145.0177.0896.0259.2377.0259h.2164v-.0812c0-.0756-.0053-.0829-.0776-.106-.1675-.0536-.3148-.1673-.3795-.2932-.054-.1048-.054-.3211 0-.4258.0495-.096.1496-.191.2723-.258.0948-.052.3438-.1189.442-.1189.0896 0 .2088-.0602.2469-.1248l.0363-.0614H1.437l-.007.419c-.007.418-.0072.4194-.0691.5433-.0711.1422-.2088.259-.3674.312-.095.0316-.0983.0355-.0983.1139v.081l.2225-.0012.2225-.0013zm.0558-1.7872c-.0794-.0557-.2988-.1474-.418-.175-.0626-.0143-.2302-.0318-.3725-.0386l-.2587-.0125-.0054-.6157-.0055-.6156H.2743v1.4124l.0651-.013c.1407-.0282.5338-.0375.7013-.0167.0971.012.2275.0399.2897.0618.1439.0508.188.0552.1276.0129m.9504-.031c.1246-.0377.206-.0466.4424-.0483.1593-.001.3527.0053.4297.0142l.14.016-.0055-.699-.0055-.699h-.1242l-.0103.6176-.0104.6176-.269.0055c-.2835.0058-.432.0355-.6208.1238-.107.05-.2172.128-.1527.1082z"/></svg>